<?xml version="1.0" standalone="no"?>
<!DOCTYPE svg PUBLIC "-//W3C//DTD SVG 20010904//EN"
 "http://www.w3.org/TR/2001/REC-SVG-20010904/DTD/svg10.dtd">
<svg version="1.0" xmlns="http://www.w3.org/2000/svg"
 width="512.000000pt" height="512.000000pt" viewBox="0 0 512.000000 512.000000"
 preserveAspectRatio="xMidYMid meet">

<g transform="translate(0.000000,512.000000) scale(0.100000,-0.100000)"
fill="#000000" stroke="none">
<path d="M2321 5110 c-497 -48 -990 -251 -1376 -565 -114 -92 -294 -274 -384
-387 -229 -287 -417 -675 -495 -1023 -49 -218 -60 -325 -60 -575 0 -250 11
-357 60 -575 79 -355 272 -748 509 -1040 98 -121 318 -334 437 -423 355 -266
748 -429 1198 -499 161 -24 539 -24 700 0 281 44 515 115 756 231 269 130 461
264 673 471 231 226 378 427 517 710 125 255 196 484 241 775 24 161 24 539 0
700 -45 291 -116 520 -241 775 -134 272 -283 480 -498 692 -211 209 -404 346
-673 478 -252 124 -486 197 -765 240 -126 19 -468 27 -599 15z m313 -690 c338
-55 469 -478 225 -722 -126 -126 -318 -157 -485 -79 -318 149 -317 611 1 767
81 39 162 50 259 34z m90 -1208 c83 -39 149 -105 189 -190 l32 -67 3 -910 c2
-665 0 -925 -8 -965 -16 -75 -54 -142 -112 -196 -156 -145 -393 -142 -541 8
-59 60 -93 122 -107 198 -14 72 -14 1769 0 1841 28 146 135 263 280 305 74 22
188 11 264 -24z"/>
</g>
</svg>
