<?xml version="1.0" standalone="no"?>
<!DOCTYPE svg PUBLIC "-//W3C//DTD SVG 20010904//EN"
 "http://www.w3.org/TR/2001/REC-SVG-20010904/DTD/svg10.dtd">
<svg version="1.0" xmlns="http://www.w3.org/2000/svg"
 width="512.000000pt" height="512.000000pt" viewBox="0 0 512.000000 512.000000"
 preserveAspectRatio="xMidYMid meet" fill="#0000FF">

<g transform="translate(0.000000,512.000000) scale(0.100000,-0.100000)"
fill="#FFD700" stroke="none">
<path d="M1055 5105 c-122 -19 -230 -52 -334 -101 -395 -187 -658 -548 -711
-976 -8 -67 -10 -499 -8 -1528 4 -1312 6 -1441 21 -1505 61 -248 160 -435 319
-602 187 -195 417 -319 683 -369 95 -18 173 -19 1535 -19 1555 0 1496 -2 1685
56 379 117 689 421 813 799 59 180 55 76 60 1640 2 1029 0 1461 -8 1528 -52
427 -316 790 -711 976 -52 25 -128 54 -169 66 -168 47 -226 50 -893 50 l-628
0 -24 -25 c-14 -13 -25 -31 -25 -40 0 -12 -16 -15 -100 -15 -84 0 -100 3 -100
15 0 9 -11 27 -25 40 l-24 25 -638 -1 c-459 -1 -660 -5 -718 -14z m1556 -755
c119 -22 254 -122 308 -228 138 -270 -24 -591 -326 -643 -283 -50 -552 216
-505 500 42 252 275 417 523 371z m319 -1330 c20 -20 20 -28 14 -933 l-7 -912
21 -19 c17 -15 45 -20 128 -26 140 -9 144 -13 144 -150 0 -152 16 -144 -285
-150 -245 -5 -247 -5 -266 -29 -10 -13 -19 -29 -19 -37 0 -11 -21 -14 -100
-14 -84 0 -100 3 -100 15 0 9 -11 27 -25 40 l-24 25 -225 0 -225 0 -21 27
c-20 25 -21 38 -18 124 4 130 9 135 136 144 183 12 172 -12 172 359 0 191 -4
293 -11 310 -7 13 -25 30 -40 37 l-29 11 0 99 c0 91 2 99 19 99 11 0 29 12 40
26 20 25 21 39 21 260 0 232 0 233 -24 261 -24 27 -27 28 -151 33 -120 5 -128
6 -147 30 -18 23 -20 35 -15 135 5 127 9 139 45 154 30 11 823 98 915 100 45
1 61 -3 77 -19z"/>
</g>

</svg>


